<?xml version="1.0" encoding="UTF-8" standalone="no"?>
<svg xmlns:xlink="http://www.w3.org/1999/xlink" height="14.0px" width="14.0px" xmlns="http://www.w3.org/2000/svg">
  <g transform="matrix(1.0, 0.0, 0.0, 1.0, 0.0, 0.0)">
    <path d="M14.0 2.0 L14.0 12.0 Q14.0 14.0 12.0 14.0 L2.0 14.0 Q0.0 14.0 0.0 12.0 L0.0 2.0 Q0.0 0.0 2.0 0.0 L12.0 0.0 Q14.0 0.0 14.0 2.0" fill="#6f7777" fill-rule="evenodd" stroke="none"/>
    <path d="M13.0 2.0 L13.0 12.0 Q13.0 13.0 12.0 13.0 L2.0 13.0 Q1.0 13.0 1.0 12.0 L1.0 2.0 Q1.0 1.0 2.0 1.0 L12.0 1.0 Q13.0 1.0 13.0 2.0" fill="url(#gradient0)" fill-rule="evenodd" stroke="none"/>
    <path d="M13.0 2.05 L13.0 3.0 Q12.95 2.05 12.0 2.05 L7.85 2.05 7.85 2.0 5.85 2.0 5.85 2.05 2.0 2.05 Q1.05 2.05 1.0 3.0 L1.0 2.05 Q1.0 1.05 2.0 1.05 L4.0 1.05 4.0 1.0 10.0 1.0 10.0 1.05 12.0 1.05 Q13.0 1.05 13.0 2.05" fill="#ffffff" fill-rule="evenodd" stroke="none"/>
  </g>
  <defs>
    <linearGradient gradientTransform="matrix(0.0, -0.0073, 0.0073, 0.0, 7.0, 7.0)" gradientUnits="userSpaceOnUse" id="gradient0" spreadMethod="pad" x1="-819.2" x2="819.2">
      <stop offset="0.0" stop-color="#c4cccc"/>
      <stop offset="1.0" stop-color="#eeeeee"/>
    </linearGradient>
  </defs>
</svg>
