<?xml version="1.0" encoding="UTF-8" standalone="no"?>
<svg xmlns:xlink="http://www.w3.org/1999/xlink" height="50.0px" width="50.0px" xmlns="http://www.w3.org/2000/svg">
  <g transform="matrix(1.0, 0.0, 0.0, 1.0, 1.2, 1.4)">
    <path d="M47.3 47.1 L0.3 47.1 0.3 0.1 47.3 0.1 47.3 47.1" fill="#ffffff" fill-rule="evenodd" stroke="none"/>
    <path d="M47.3 8.1 L47.3 2.1 M47.3 20.1 L47.3 14.1 M47.3 32.1 L47.3 26.1 M47.3 44.1 L47.3 38.1 M47.3 0.1 L41.3 0.1 M35.3 0.1 L29.3 0.1 M11.3 0.1 L5.3 0.1 M0.3 1.1 L0.3 7.1 M0.3 13.1 L0.3 19.1 M0.3 25.1 L0.3 31.1 M0.3 37.1 L0.3 43.1 M2.3 47.1 L8.3 47.1 M26.3 47.1 L32.3 47.1 M23.3 0.1 L17.3 0.1 M14.3 47.1 L20.3 47.1 M38.3 47.1 L44.3 47.1" fill="none" stroke="#000000" stroke-linecap="round" stroke-linejoin="round" stroke-width="3.0"/>
    <path d="M42.8 17.95 L43.0 18.2 43.0 18.45 43.1 20.55 43.45 23.2 43.8 25.6 44.0 26.9 44.1 27.2 44.25 27.55 43.9 27.8 43.75 28.0 43.35 28.05 43.1 28.15 Q42.9 28.15 42.85 27.95 L42.8 27.7 42.75 27.3 42.7 26.05 42.65 25.1 42.45 23.5 42.3 22.15 42.1 20.55 42.05 20.15 39.6 25.15 39.6 25.35 39.5 25.5 39.55 25.75 Q39.15 26.15 39.05 26.5 L38.75 26.65 38.35 26.4 38.05 25.85 37.95 25.8 37.85 25.65 37.8 25.5 37.75 25.25 37.75 25.05 36.8 22.95 35.8 20.6 35.75 20.75 35.3 22.95 35.0 24.5 34.75 26.2 34.7 26.45 34.65 26.75 34.65 26.85 34.7 27.1 34.45 27.9 34.15 28.0 33.95 28.1 33.9 28.1 33.6 27.95 33.35 27.7 Q33.85 27.05 34.45 23.15 L34.8 21.5 35.1 19.9 35.05 19.3 35.25 18.45 35.75 18.15 Q36.2 18.15 36.3 18.85 L36.5 19.1 36.55 19.6 37.0 20.75 37.4 21.55 37.4 21.8 38.0 23.15 38.65 24.45 38.9 24.65 Q39.2 24.65 39.7 23.3 L40.25 22.2 40.85 20.75 41.4 19.7 41.65 19.05 Q41.8 18.45 42.05 18.2 42.3 17.9 42.6 17.9 L42.8 17.95 M28.85 18.35 Q30.15 18.45 30.45 18.7 30.95 18.65 31.7 19.8 32.4 20.9 32.4 22.2 L32.3 23.45 31.9 24.65 31.2 25.8 30.05 27.15 28.8 27.75 27.35 27.95 25.25 27.6 24.85 27.5 24.55 27.3 24.4 27.15 24.2 27.1 Q23.4 26.65 23.05 25.85 22.75 25.05 22.75 23.6 22.75 22.5 23.45 21.0 L23.55 20.8 23.7 20.55 23.85 20.4 24.55 19.55 Q24.65 19.4 25.05 19.25 L25.5 18.95 Q25.6 18.8 25.75 18.8 L25.85 18.85 25.95 18.7 26.1 18.65 26.6 18.5 27.2 18.35 27.75 18.3 28.2 18.2 28.6 18.25 28.85 18.35 M24.5 21.1 Q24.15 21.4 23.95 22.15 L23.75 23.65 23.95 24.9 Q24.15 25.5 24.5 25.65 L24.5 25.8 24.9 26.2 25.55 26.55 26.3 26.8 26.95 26.95 27.75 27.0 28.05 27.0 28.5 26.9 28.9 26.8 29.7 26.35 29.75 26.25 29.75 26.2 30.1 25.9 30.45 25.7 30.5 25.65 30.45 25.5 Q31.3 24.0 31.3 22.8 L31.1 21.35 30.55 20.25 29.75 19.55 28.5 19.2 27.6 19.1 27.6 19.15 27.4 19.3 27.1 19.35 26.85 19.35 Q26.7 19.35 26.6 19.5 L26.45 19.6 26.45 19.65 26.2 19.6 26.2 19.55 Q25.65 19.75 25.5 19.9 L25.25 20.0 25.05 20.3 24.75 20.6 24.6 20.8 24.5 21.1 M21.5 24.65 L20.8 25.8 19.65 27.15 18.4 27.75 16.95 27.95 Q15.0 27.95 14.85 27.6 L14.45 27.5 14.15 27.3 14.0 27.15 13.8 27.1 Q13.0 26.65 12.65 25.85 12.35 25.05 12.35 23.6 12.35 22.5 13.05 21.0 L13.15 20.8 13.3 20.55 13.45 20.4 14.15 19.55 14.65 19.25 15.1 18.95 15.35 18.8 15.45 18.85 15.55 18.7 15.7 18.65 16.2 18.5 16.8 18.35 17.35 18.3 17.8 18.2 18.2 18.25 18.45 18.35 20.05 18.7 Q20.55 18.65 21.3 19.8 22.0 20.9 22.0 22.2 L21.9 23.45 21.5 24.65 M20.7 21.35 L20.15 20.25 19.35 19.55 Q18.85 19.25 18.1 19.2 L17.2 19.1 17.2 19.15 17.0 19.3 16.7 19.35 16.45 19.35 16.2 19.5 16.05 19.6 16.05 19.65 15.8 19.6 15.8 19.55 Q15.25 19.75 15.1 19.9 L14.85 20.0 14.65 20.3 14.35 20.6 14.2 20.8 14.1 21.1 Q13.75 21.4 13.55 22.15 L13.35 23.65 13.55 24.9 Q13.75 25.5 14.1 25.65 L14.1 25.8 14.5 26.2 15.15 26.55 15.9 26.8 16.55 26.95 17.35 27.0 17.65 27.0 18.1 26.9 18.5 26.8 19.3 26.35 19.35 26.25 19.35 26.2 19.7 25.9 20.05 25.7 20.1 25.65 20.05 25.5 Q20.9 24.0 20.9 22.8 L20.7 21.35 M26.45 19.6 L26.45 19.5 26.3 19.5 26.45 19.6 M9.1 18.45 L10.45 18.1 10.5 18.2 Q10.6 18.0 10.85 18.05 L11.25 18.05 Q11.6 18.05 11.6 18.4 L11.05 19.1 10.15 20.2 8.85 22.0 7.4 24.15 6.35 25.7 5.75 26.65 5.55 27.0 7.0 26.95 7.5 27.0 9.25 26.9 11.1 26.8 11.65 26.85 11.8 27.25 11.65 28.0 10.95 28.1 10.65 28.1 10.5 28.05 10.45 28.05 10.2 27.95 7.85 27.8 5.45 27.9 4.45 28.1 3.75 28.0 Q3.8 27.45 4.0 27.2 L4.2 26.95 4.2 26.85 4.4 26.65 4.5 26.45 5.05 26.0 5.15 25.85 5.15 25.65 5.3 25.7 5.3 25.65 5.4 25.55 5.55 25.35 5.75 25.0 5.9 24.65 6.1 24.4 6.3 24.2 8.7 20.65 9.0 20.2 9.1 20.0 9.3 19.65 9.45 19.4 8.0 19.5 7.4 19.55 7.15 19.5 6.95 19.5 6.8 19.55 6.0 19.45 5.8 19.45 5.6 19.5 5.25 19.4 5.2 19.15 5.4 18.65 5.7 18.4 7.45 18.5 8.25 18.4 8.9 18.35 9.0 18.45 9.1 18.45 M16.05 19.6 L16.05 19.5 15.9 19.5 16.05 19.6" fill="#000000" fill-rule="evenodd" stroke="none"/>
  </g>
</svg>
