<?xml version="1.0" encoding="UTF-8" standalone="no"?>
<svg xmlns:xlink="http://www.w3.org/1999/xlink" height="21.0px" width="9.0px" xmlns="http://www.w3.org/2000/svg">
  <g transform="matrix(1.0, 0.0, 0.0, 1.0, 4.0, 10.0)">
    <path d="M4.0 -4.95 L4.0 -5.95 3.0 -5.95 3.0 -6.95 2.0 -6.95 2.0 -8.0 1.05 -8.0 1.05 -9.0 0.05 -9.0 0.05 -8.0 -0.95 -8.0 -0.95 -6.95 -1.95 -6.95 -1.95 -5.95 -3.0 -5.95 -3.0 -4.95 0.05 -4.95 0.05 6.0 -3.0 6.0 -3.0 7.0 -1.95 7.0 -1.95 8.0 -0.95 8.0 -0.95 9.0 0.05 9.0 0.05 10.0 1.05 10.0 1.05 9.0 2.0 9.0 2.0 8.0 3.0 8.0 3.0 7.0 4.0 7.0 4.0 6.0 1.05 6.0 1.05 -4.95 4.0 -4.95 M5.0 -6.95 L5.0 -3.95 2.0 -3.95 2.0 5.0 5.0 5.0 5.0 8.0 4.0 8.0 4.0 9.0 3.0 9.0 3.0 10.0 2.0 10.0 2.0 11.0 -0.95 11.0 -0.95 10.0 -1.95 10.0 -1.95 9.0 -3.0 9.0 -3.0 8.0 -4.0 8.0 -4.0 5.0 -0.95 5.0 -0.95 -3.95 -4.0 -3.95 -4.0 -6.95 -3.0 -6.95 -3.0 -8.0 -1.95 -8.0 -1.95 -9.0 -0.95 -9.0 -0.95 -10.0 2.0 -10.0 2.0 -9.0 3.0 -9.0 3.0 -8.0 4.0 -8.0 4.0 -6.95 5.0 -6.95" fill="#ffffff" fill-rule="evenodd" stroke="none"/>
    <path d="M4.0 -4.95 L1.05 -4.95 1.05 6.0 4.0 6.0 4.0 7.0 3.0 7.0 3.0 8.0 2.0 8.0 2.0 9.0 1.05 9.0 1.05 10.0 0.05 10.0 0.05 9.0 -0.95 9.0 -0.95 8.0 -1.95 8.0 -1.95 7.0 -3.0 7.0 -3.0 6.0 0.05 6.0 0.05 -4.95 -3.0 -4.95 -3.0 -5.95 -1.95 -5.95 -1.95 -6.95 -0.95 -6.95 -0.95 -8.0 0.05 -8.0 0.05 -9.0 1.05 -9.0 1.05 -8.0 2.0 -8.0 2.0 -6.95 3.0 -6.95 3.0 -5.95 4.0 -5.95 4.0 -4.95" fill="#000000" fill-rule="evenodd" stroke="none"/>
  </g>
</svg>
