<?xml version="1.0" encoding="UTF-8" standalone="no"?>
<svg xmlns:xlink="http://www.w3.org/1999/xlink" height="15.05px" width="15.0px" xmlns="http://www.w3.org/2000/svg">
  <g transform="matrix(1.0, 0.0, 0.0, 1.0, 7.0, 7.05)">
    <path d="M3.95 -3.0 L3.95 -4.0 2.95 -4.0 2.95 -5.0 1.95 -5.0 1.95 -6.0 6.95 -6.0 6.95 -1.0 5.95 -1.0 5.95 -2.0 4.95 -2.0 4.95 -3.0 3.95 -3.0 3.95 -2.0 2.95 -2.0 2.95 -1.0 1.95 -1.0 1.95 0.0 1.0 0.0 1.0 1.0 0.0 1.0 0.0 1.95 -1.0 1.95 -1.0 2.95 -2.0 2.95 -2.0 3.95 -3.0 3.95 -3.0 4.95 -2.0 4.95 -2.0 5.95 -1.0 5.95 -1.0 6.95 -6.0 6.95 -6.0 1.95 -5.0 1.95 -5.0 2.95 -4.0 2.95 -4.0 3.95 -3.0 3.95 -3.0 2.95 -2.0 2.95 -2.0 1.95 -1.0 1.95 -1.0 1.0 0.0 1.0 0.0 0.0 1.0 0.0 1.0 -1.0 1.95 -1.0 1.95 -2.0 2.95 -2.0 2.95 -3.0 3.95 -3.0" fill="#000000" fill-rule="evenodd" stroke="none"/>
    <path d="M3.95 -3.0 L4.95 -3.0 4.95 -2.0 5.95 -2.0 5.95 -1.0 6.95 -1.0 6.95 -6.0 1.95 -6.0 1.95 -5.0 2.95 -5.0 2.95 -4.0 3.95 -4.0 3.95 -3.0 2.95 -3.0 2.95 -2.0 1.95 -2.0 1.95 -1.0 1.0 -1.0 1.0 0.0 0.0 0.0 0.0 1.0 -1.0 1.0 -1.0 1.95 -2.0 1.95 -2.0 2.95 -3.0 2.95 -3.0 3.95 -4.0 3.95 -4.0 2.95 -5.0 2.95 -5.0 1.95 -6.0 1.95 -6.0 6.95 -1.0 6.95 -1.0 5.95 -2.0 5.95 -2.0 4.95 -3.0 4.95 -3.0 3.95 -2.0 3.95 -2.0 2.95 -1.0 2.95 -1.0 1.95 0.0 1.95 0.0 1.0 1.0 1.0 1.0 0.0 1.95 0.0 1.95 -1.0 2.95 -1.0 2.95 -2.0 3.95 -2.0 3.95 -3.0 M1.95 -4.0 L1.0 -4.0 1.0 -7.05 8.0 -7.05 8.0 0.0 4.95 0.0 4.95 -1.0 3.95 -1.0 3.95 0.0 2.95 0.0 2.95 1.0 1.95 1.0 1.95 1.95 1.0 1.95 1.0 2.95 0.0 2.95 0.0 3.95 -1.0 3.95 -1.0 4.95 0.0 4.95 0.0 8.0 -7.0 8.0 -7.0 1.0 -4.0 1.0 -4.0 1.95 -3.0 1.95 -3.0 1.0 -2.0 1.0 -2.0 0.0 -1.0 0.0 -1.0 -1.0 0.0 -1.0 0.0 -2.0 1.0 -2.0 1.0 -3.0 1.95 -3.0 1.95 -4.0" fill="#ffffff" fill-rule="evenodd" stroke="none"/>
  </g>
</svg>
