<?xml version="1.0" encoding="UTF-8" standalone="no"?>
<svg xmlns:xlink="http://www.w3.org/1999/xlink" height="9.05px" width="21.0px" xmlns="http://www.w3.org/2000/svg">
  <g transform="matrix(1.0, 0.0, 0.0, 1.0, 10.0, 4.0)">
    <path d="M8.0 5.05 L4.95 5.05 4.95 2.0 -4.0 2.0 -4.0 5.05 -7.0 5.05 -7.0 4.0 -8.0 4.0 -8.0 3.0 -9.0 3.0 -9.0 2.0 -10.0 2.0 -10.0 -0.95 -9.0 -0.95 -9.0 -1.95 -8.0 -1.95 -8.0 -2.95 -7.0 -2.95 -7.0 -4.0 -4.0 -4.0 -4.0 -0.95 4.95 -0.95 4.95 -4.0 8.0 -4.0 8.0 -2.95 9.0 -2.95 9.0 -1.95 10.0 -1.95 10.0 -0.95 11.0 -0.95 11.0 2.0 10.0 2.0 10.0 3.0 9.0 3.0 9.0 4.0 8.0 4.0 8.0 5.05 M5.95 4.0 L7.0 4.0 7.0 3.0 8.0 3.0 8.0 2.0 9.0 2.0 9.0 1.05 10.0 1.05 10.0 0.05 9.0 0.05 9.0 -0.95 8.0 -0.95 8.0 -1.95 7.0 -1.95 7.0 -2.95 5.95 -2.95 5.95 0.05 -5.0 0.05 -5.0 -2.95 -6.0 -2.95 -6.0 -1.95 -7.0 -1.95 -7.0 -0.95 -8.0 -0.95 -8.0 0.05 -9.0 0.05 -9.0 1.05 -8.0 1.05 -8.0 2.0 -7.0 2.0 -7.0 3.0 -6.0 3.0 -6.0 4.0 -5.0 4.0 -5.0 1.05 5.95 1.05 5.95 4.0" fill="#ffffff" fill-rule="evenodd" stroke="none"/>
    <path d="M5.95 4.0 L5.95 1.05 -5.0 1.05 -5.0 4.0 -6.0 4.0 -6.0 3.0 -7.0 3.0 -7.0 2.0 -8.0 2.0 -8.0 1.05 -9.0 1.05 -9.0 0.05 -8.0 0.05 -8.0 -0.95 -7.0 -0.95 -7.0 -1.95 -6.0 -1.95 -6.0 -2.95 -5.0 -2.95 -5.0 0.05 5.95 0.05 5.95 -2.95 7.0 -2.95 7.0 -1.95 8.0 -1.95 8.0 -0.95 9.0 -0.95 9.0 0.05 10.0 0.05 10.0 1.05 9.0 1.05 9.0 2.0 8.0 2.0 8.0 3.0 7.0 3.0 7.0 4.0 5.95 4.0" fill="#000000" fill-rule="evenodd" stroke="none"/>
  </g>
</svg>
