<?xml version="1.0" encoding="UTF-8" standalone="no"?>
<svg xmlns:xlink="http://www.w3.org/1999/xlink" height="15.0px" width="15.0px" xmlns="http://www.w3.org/2000/svg">
  <g transform="matrix(1.0, 0.0, 0.0, 1.0, 7.0, 7.0)">
    <path d="M-0.95 -2.95 L0.05 -2.95 0.05 -1.95 1.05 -1.95 1.05 -0.95 2.0 -0.95 2.0 0.05 3.0 0.05 3.0 1.05 4.0 1.05 4.0 2.0 5.0 2.0 5.0 1.05 8.0 1.05 8.0 8.0 1.05 8.0 1.05 5.0 2.0 5.0 2.0 4.0 1.05 4.0 1.05 3.0 0.05 3.0 0.05 2.0 -0.95 2.0 -0.95 1.05 -1.95 1.05 -1.95 0.05 -2.95 0.05 -2.95 -0.95 -3.95 -0.95 -3.95 0.05 -7.0 0.05 -7.0 -7.0 0.05 -7.0 0.05 -3.95 -0.95 -3.95 -0.95 -2.95 M-1.95 -3.95 L-1.95 -5.0 -0.95 -5.0 -0.95 -6.0 -6.0 -6.0 -6.0 -0.95 -5.0 -0.95 -5.0 -1.95 -3.95 -1.95 -3.95 -2.95 -2.95 -2.95 -2.95 -1.95 -1.95 -1.95 -1.95 -0.95 -0.95 -0.95 -0.95 0.05 0.05 0.05 0.05 1.05 1.05 1.05 1.05 2.0 2.0 2.0 2.0 3.0 3.0 3.0 3.0 4.0 4.0 4.0 4.0 5.0 3.0 5.0 3.0 6.0 2.0 6.0 2.0 7.0 7.0 7.0 7.0 2.0 6.0 2.0 6.0 3.0 5.0 3.0 5.0 4.0 4.0 4.0 4.0 3.0 3.0 3.0 3.0 2.0 2.0 2.0 2.0 1.05 1.05 1.05 1.05 0.05 0.05 0.05 0.05 -0.95 -0.95 -0.95 -0.95 -1.95 -1.95 -1.95 -1.95 -2.95 -2.95 -2.95 -2.95 -3.95 -1.95 -3.95" fill="#ffffff" fill-rule="evenodd" stroke="none"/>
    <path d="M-1.95 -3.95 L-2.95 -3.95 -2.95 -2.95 -1.95 -2.95 -1.95 -1.95 -0.95 -1.95 -0.95 -0.95 0.05 -0.95 0.05 0.05 1.05 0.05 1.05 1.05 2.0 1.05 2.0 2.0 3.0 2.0 3.0 3.0 4.0 3.0 4.0 4.0 5.0 4.0 5.0 3.0 6.0 3.0 6.0 2.0 7.0 2.0 7.0 7.0 2.0 7.0 2.0 6.0 3.0 6.0 3.0 5.0 4.0 5.0 4.0 4.0 3.0 4.0 3.0 3.0 2.0 3.0 2.0 2.0 1.05 2.0 1.05 1.05 0.05 1.05 0.05 0.05 -0.95 0.05 -0.95 -0.95 -1.95 -0.95 -1.95 -1.95 -2.95 -1.95 -2.95 -2.95 -3.95 -2.95 -3.95 -1.95 -5.0 -1.95 -5.0 -0.95 -6.0 -0.95 -6.0 -6.0 -0.95 -6.0 -0.95 -5.0 -1.95 -5.0 -1.95 -3.95" fill="#000000" fill-rule="evenodd" stroke="none"/>
  </g>
</svg>
