<?xml version="1.0" encoding="UTF-8" standalone="no"?>
<svg xmlns:xlink="http://www.w3.org/1999/xlink" height="10.0px" width="10.0px" xmlns="http://www.w3.org/2000/svg">
  <g transform="matrix(1.0, 0.0, 0.0, 1.0, 0.0, 0.0)">
    <path d="M10.0 5.0 Q10.0 7.05 8.55 8.55 7.1 10.0 5.0 10.0 2.95 10.0 1.5 8.55 0.0 7.05 0.0 5.0 0.0 2.95 1.5 1.45 2.95 0.0 5.0 0.0 7.1 0.0 8.55 1.45 10.0 2.95 10.0 5.0" fill="url(#gradient0)" fill-rule="evenodd" stroke="none"/>
    <path d="M10.0 5.0 Q10.0 7.05 8.55 8.55 7.1 10.0 5.0 10.0 2.95 10.0 1.5 8.55 0.0 7.05 0.0 5.0 0.0 2.95 1.5 1.45 2.95 0.0 5.0 0.0 7.1 0.0 8.55 1.45 10.0 2.95 10.0 5.0 Z" fill="none" stroke="#000000" stroke-linecap="round" stroke-linejoin="round" stroke-width="0.05"/>
  </g>
  <defs>
    <linearGradient gradientTransform="matrix(0.0, 0.006, 0.0065, 0.0, 16.9, 5.0)" gradientUnits="userSpaceOnUse" id="gradient0" spreadMethod="pad" x1="-819.2" x2="819.2">
      <stop offset="0.0" stop-color="#ffffff"/>
      <stop offset="1.0" stop-color="#878787"/>
    </linearGradient>
  </defs>
</svg>
