<?xml version="1.0" encoding="UTF-8" standalone="no"?>
<svg xmlns:xlink="http://www.w3.org/1999/xlink" height="8.0px" width="8.0px" xmlns="http://www.w3.org/2000/svg">
  <g transform="matrix(1.0, 0.0, 0.0, 1.0, 0.0, 0.0)">
    <path d="M0.0 6.0 L3.0 6.0 3.0 7.0 0.0 7.0 0.0 6.0" fill="#000000" fill-rule="evenodd" stroke="none"/>
    <path d="M1.0 5.0 L3.0 5.0 3.0 6.0 1.0 6.0 1.0 5.0" fill="#000000" fill-rule="evenodd" stroke="none"/>
    <path d="M1.0 7.0 L2.0 7.0 2.0 8.0 1.0 8.0 1.0 7.0" fill="#000000" fill-rule="evenodd" stroke="none"/>
    <path d="M0.0 1.0 L3.0 1.0 3.0 2.0 0.0 2.0 0.0 1.0" fill="#000000" fill-rule="evenodd" stroke="none"/>
    <path d="M1.0 2.0 L3.0 2.0 3.0 3.0 1.0 3.0 1.0 2.0" fill="#000000" fill-rule="evenodd" stroke="none"/>
    <path d="M1.0 0.0 L2.0 0.0 2.0 1.0 1.0 1.0 1.0 0.0" fill="#000000" fill-rule="evenodd" stroke="none"/>
    <path d="M6.0 0.0 L7.0 0.0 7.0 3.0 6.0 3.0 6.0 0.0" fill="#000000" fill-rule="evenodd" stroke="none"/>
    <path d="M5.0 1.0 L8.0 1.0 8.0 2.0 5.0 2.0 5.0 1.0" fill="#000000" fill-rule="evenodd" stroke="none"/>
    <path d="M5.0 2.0 L6.0 2.0 6.0 3.0 5.0 3.0 5.0 2.0" fill="#000000" fill-rule="evenodd" stroke="none"/>
    <path d="M3.0 3.0 L5.0 3.0 5.0 5.0 3.0 5.0 3.0 3.0" fill="#000000" fill-rule="evenodd" stroke="none"/>
    <path d="M5.0 5.0 L7.0 5.0 7.0 7.0 5.0 7.0 5.0 5.0" fill="#000000" fill-rule="evenodd" stroke="none"/>
    <path d="M7.0 6.0 L8.0 6.0 8.0 7.0 7.0 7.0 7.0 6.0" fill="#000000" fill-rule="evenodd" stroke="none"/>
    <path d="M6.0 7.0 L7.0 7.0 7.0 8.0 6.0 8.0 6.0 7.0" fill="#000000" fill-rule="evenodd" stroke="none"/>
    <path d="M3.0 6.0 L3.0 5.0 5.0 5.0 5.0 6.0 3.0 6.0" fill="#000000" fill-opacity="0.6" fill-rule="evenodd" stroke="none"/>
    <path d="M3.0 3.0 L3.0 2.0 5.0 2.0 5.0 3.0 3.0 3.0" fill="#000000" fill-opacity="0.6" fill-rule="evenodd" stroke="none"/>
    <path d="M5.0 3.0 L6.0 3.0 6.0 5.0 5.0 5.0 5.0 3.0" fill="#000000" fill-opacity="0.6" fill-rule="evenodd" stroke="none"/>
    <path d="M2.0 3.0 L3.0 3.0 3.0 5.0 2.0 5.0 2.0 3.0" fill="#000000" fill-opacity="0.6" fill-rule="evenodd" stroke="none"/>
    <path d="M7.0 7.0 L8.0 7.0 8.0 8.0 7.0 8.0 7.0 7.0" fill="#000000" fill-opacity="0.6" fill-rule="evenodd" stroke="none"/>
    <path d="M7.0 0.0 L8.0 0.0 8.0 1.0 7.0 1.0 7.0 0.0" fill="#000000" fill-opacity="0.6" fill-rule="evenodd" stroke="none"/>
    <path d="M0.0 0.0 L1.0 0.0 1.0 1.0 0.0 1.0 0.0 0.0" fill="#000000" fill-opacity="0.6" fill-rule="evenodd" stroke="none"/>
    <path d="M0.0 7.0 L1.0 7.0 1.0 8.0 0.0 8.0 0.0 7.0" fill="#000000" fill-opacity="0.6" fill-rule="evenodd" stroke="none"/>
  </g>
</svg>
