<?xml version="1.0" encoding="UTF-8" standalone="no"?>
<svg xmlns:xlink="http://www.w3.org/1999/xlink" height="34.5px" width="62.6px" xmlns="http://www.w3.org/2000/svg">
  <g transform="matrix(1.0, 0.0, 0.0, 1.0, 1.3, 1.3)">
    <path d="M60.0 23.25 L42.8 26.65 Q31.8 35.9 17.55 28.85 L0.0 29.5 12.2 20.05 Q11.25 17.6 11.25 14.8 11.25 8.35 16.4 4.05 20.1 0.9 24.9 0.2 L28.75 0.0 Q35.9 0.35 41.05 5.1 46.15 9.9 46.15 16.4 L46.15 16.8 60.0 23.25 Q27.3 22.75 0.0 29.5 27.3 22.75 60.0 23.25 M46.15 16.8 Q29.15 17.0 12.2 20.05 29.15 17.0 46.15 16.8 M42.8 26.65 Q31.1 25.7 17.55 28.85 31.1 25.7 42.8 26.65" fill="#c9e1f1" fill-rule="evenodd" stroke="none"/>
    <path d="M60.0 23.25 L42.8 26.65 Q31.8 35.9 17.55 28.85 L0.0 29.5 12.2 20.05 Q11.25 17.6 11.25 14.8 11.25 8.35 16.4 4.05 20.1 0.9 24.9 0.2 L28.75 0.0 Q35.9 0.35 41.05 5.1 46.15 9.9 46.15 16.4 L46.15 16.8 60.0 23.25 Q27.3 22.75 0.0 29.5 M12.2 20.05 Q29.15 17.0 46.15 16.8 M17.55 28.85 Q31.1 25.7 42.8 26.65" fill="none" stroke="#48648c" stroke-linecap="round" stroke-linejoin="miter" stroke-miterlimit="3.0" stroke-width="2.0"/>
  </g>
</svg>
