<?xml version="1.0" encoding="UTF-8" standalone="no"?>
<svg xmlns:xlink="http://www.w3.org/1999/xlink" height="46.65px" width="25.0px" xmlns="http://www.w3.org/2000/svg">
  <g transform="matrix(1.0, 0.0, 0.0, 1.0, 0.0, 0.0)">
    <path d="M21.35 8.2 Q17.7 9.6 12.5 9.6 7.3 9.6 3.65 8.2 0.0 6.8 0.0 4.8 0.0 2.8 3.65 1.4 7.3 0.0 12.5 0.0 17.7 0.0 21.35 1.4 25.0 2.8 25.0 4.8 25.0 6.8 21.35 8.2" fill="#000000" fill-opacity="0.5019608" fill-rule="evenodd" stroke="none"/>
    <path d="M17.3 4.85 L15.0 4.75 15.0 5.95 Q15.55 10.6 15.55 13.45 L16.1 13.6 17.55 13.95 17.65 13.95 Q17.9 13.95 18.0 14.35 L18.0 14.8 Q17.45 21.85 16.6 25.85 L16.8 25.55 18.6 21.1 19.2 17.8 Q19.5 15.6 19.75 14.65 L20.05 15.45 20.1 16.05 Q20.1 18.55 18.85 22.4 17.6 26.25 16.2 27.6 L15.7 29.15 Q18.65 30.1 20.0 32.5 21.0 34.25 21.0 37.05 21.0 45.45 9.25 46.65 4.4 45.85 2.6 42.75 1.5 40.9 1.5 37.95 1.5 35.3 3.0 32.75 4.35 30.35 6.75 29.3 L6.65 28.5 Q5.25 26.4 4.25 23.0 3.2 19.55 3.2 16.9 3.2 14.75 3.55 14.35 3.95 15.65 4.15 17.95 L4.55 21.5 6.0 25.35 6.4 26.3 5.95 22.65 Q5.2 16.1 5.2 14.65 L5.2 14.55 Q5.2 13.9 6.5 13.6 L9.0 13.3 8.6 9.35 Q8.35 6.5 8.4 4.7 6.25 4.7 6.25 4.15 6.25 3.85 6.45 3.8 L7.7 3.75 8.95 3.8 9.25 4.15 Q8.95 5.2 9.1 6.45 L9.2 9.4 9.4 13.25 12.55 13.2 15.05 13.4 Q14.2 9.8 14.2 4.15 14.2 3.65 14.55 3.65 16.2 3.65 16.9 4.1 L17.35 4.6 17.3 4.85 M5.8 14.85 Q6.25 16.9 7.1 26.7 L7.1 28.3 7.15 28.7 7.1 28.9 7.05 28.9 7.05 29.2 Q8.8 28.5 11.05 28.5 L15.3 29.0 16.55 21.75 17.3 14.55 15.3 14.3 15.25 14.3 14.25 14.05 7.2 14.5 5.8 14.85 M18.7 32.7 Q16.5 29.55 11.1 29.55 6.55 29.55 4.2 32.75 2.3 35.35 2.3 39.05 2.3 41.25 3.9 43.25 6.35 46.35 11.5 46.05 16.95 45.05 18.9 41.75 19.95 39.95 19.95 36.85 19.95 34.5 18.7 32.7" fill="#000000" fill-rule="evenodd" stroke="none"/>
    <path d="M18.7 32.7 Q19.95 34.5 19.95 36.85 19.95 39.95 18.9 41.75 16.95 45.05 11.5 46.05 6.35 46.35 3.9 43.25 2.3 41.25 2.3 39.05 2.3 35.35 4.2 32.75 6.55 29.55 11.1 29.55 16.5 29.55 18.7 32.7 M5.8 14.85 L7.2 14.5 14.25 14.05 15.25 14.3 15.3 14.3 17.3 14.55 16.55 21.75 15.3 29.0 11.05 28.5 Q8.8 28.5 7.05 29.2 L7.05 28.9 7.1 28.9 7.15 28.7 7.1 28.3 7.1 26.7 Q6.25 16.9 5.8 14.85" fill="#ffffff" fill-rule="evenodd" stroke="none"/>
  </g>
</svg>
