<?xml version="1.0" encoding="UTF-8" standalone="no"?>
<svg xmlns:xlink="http://www.w3.org/1999/xlink" height="57.45px" width="81.4px" xmlns="http://www.w3.org/2000/svg">
  <g transform="matrix(1.0, 0.0, 0.0, 1.0, 1.0, 1.0)">
    <path d="M12.55 20.55 L12.55 8.9 70.55 8.9 70.55 20.4 52.55 20.45 Q32.55 20.05 12.55 20.55" fill="url(#gradient0)" fill-rule="evenodd" stroke="none"/>
    <path d="M70.55 20.4 L70.55 46.9 12.55 46.9 12.55 20.55 Q32.55 20.05 52.55 20.45 L70.55 20.4" fill="url(#gradient1)" fill-rule="evenodd" stroke="none"/>
    <path d="M70.55 20.4 L70.55 46.9 12.55 46.9 12.55 20.55 12.55 8.9 70.55 8.9 70.55 20.4 Z" fill="none" stroke="#000000" stroke-linecap="round" stroke-linejoin="round" stroke-width="2.0"/>
    <path d="M2.9 16.35 Q0.4 12.85 0.05 8.95 -0.65 1.35 9.7 0.0 M7.4 13.9 Q6.15 11.9 6.2 9.65 6.3 5.15 12.55 3.9" fill="none" stroke="#000000" stroke-linecap="round" stroke-linejoin="round" stroke-width="2.0"/>
    <path d="M74.15 43.0 Q74.25 45.35 73.2 47.3 70.95 51.2 64.9 49.35 M79.25 42.95 Q79.75 47.25 78.3 50.85 75.35 57.85 65.6 54.2" fill="none" stroke="#000000" stroke-linecap="round" stroke-linejoin="round" stroke-width="2.0"/>
  </g>
  <defs>
    <linearGradient gradientTransform="matrix(0.0354, 0.0, 0.0, 0.0071, 41.55, 14.7)" gradientUnits="userSpaceOnUse" id="gradient0" spreadMethod="pad" x1="-819.2" x2="819.2">
      <stop offset="0.0" stop-color="#ffffff"/>
      <stop offset="1.0" stop-color="#bcbdfe"/>
    </linearGradient>
    <linearGradient gradientTransform="matrix(0.0354, 0.0, 0.0, 0.0163, 41.55, 33.55)" gradientUnits="userSpaceOnUse" id="gradient1" spreadMethod="pad" x1="-819.2" x2="819.2">
      <stop offset="0.0" stop-color="#e6e6ff"/>
      <stop offset="1.0" stop-color="#ffffff"/>
    </linearGradient>
  </defs>
</svg>
