<?xml version="1.0" encoding="UTF-8" standalone="no"?>
<svg xmlns:xlink="http://www.w3.org/1999/xlink" height="50.0px" width="80.0px" xmlns="http://www.w3.org/2000/svg">
  <g transform="matrix(1.0, 0.0, 0.0, 1.0, 0.0, 0.0)">
    <path d="M0.0 0.0 L80.0 0.0 80.0 50.0 0.0 50.0 0.0 0.0" fill="#000000" fill-rule="evenodd" stroke="none"/>
    <path d="M30.1 9.7 L30.3 10.15 30.1 10.6 29.65 10.8 Q29.4 10.8 29.2 10.6 L29.0 10.15 29.2 9.7 Q29.4 9.5 29.65 9.5 L30.1 9.7 M35.05 6.9 L35.25 6.4 35.75 6.2 36.25 6.4 36.45 6.9 36.25 7.4 35.75 7.6 Q35.45 7.6 35.25 7.4 L35.05 6.9 M26.0 15.45 L26.2 16.0 26.0 16.6 25.4 16.8 Q25.05 16.8 24.85 16.6 L24.6 16.0 Q24.6 15.65 24.85 15.45 25.05 15.2 25.4 15.2 L26.0 15.45 M24.55 8.8 L24.8 9.65 24.55 10.5 Q24.25 10.85 23.85 10.85 23.45 10.85 23.2 10.5 22.9 10.15 22.9 9.65 22.9 9.15 23.2 8.8 23.45 8.45 23.85 8.45 24.25 8.45 24.55 8.8 M30.35 3.05 L30.6 3.65 30.35 4.3 29.75 4.55 29.15 4.3 28.9 3.65 29.15 3.05 Q29.4 2.75 29.75 2.75 30.1 2.75 30.35 3.05 M53.05 24.5 Q53.5 24.5 53.85 24.85 L54.15 25.6 53.85 26.4 53.05 26.7 52.3 26.4 Q51.95 26.05 51.95 25.6 51.95 25.15 52.3 24.85 52.6 24.5 53.05 24.5 M49.0 19.7 L49.2 19.2 49.65 19.0 Q49.9 19.0 50.1 19.2 L50.3 19.7 50.1 20.2 Q49.9 20.4 49.65 20.4 L49.2 20.2 49.0 19.7 M53.05 15.6 Q53.35 15.25 53.85 15.25 54.35 15.25 54.7 15.6 L55.0 16.4 54.7 17.25 53.85 17.55 53.05 17.25 Q52.7 16.9 52.7 16.4 52.7 15.9 53.05 15.6 M50.75 7.8 L51.05 8.55 50.75 9.3 50.05 9.6 Q49.65 9.6 49.35 9.3 49.05 9.0 49.05 8.55 49.05 8.1 49.35 7.8 49.65 7.5 50.05 7.5 50.45 7.5 50.75 7.8 M48.45 13.7 L48.9 13.5 49.35 13.7 49.55 14.2 49.35 14.7 48.9 14.9 48.45 14.7 48.25 14.2 48.45 13.7 M44.45 8.35 L44.35 8.8 44.05 8.95 43.8 8.8 43.65 8.35 Q43.65 8.1 43.8 7.95 43.9 7.75 44.05 7.75 44.2 7.75 44.35 7.95 L44.45 8.35 M41.55 1.8 L41.85 2.55 41.55 3.3 40.85 3.6 Q40.45 3.6 40.15 3.3 39.85 3.0 39.85 2.55 39.85 2.1 40.15 1.8 40.45 1.5 40.85 1.5 41.25 1.5 41.55 1.8 M31.15 34.75 Q31.65 34.75 32.0 35.1 32.35 35.45 32.35 35.95 L32.0 36.8 31.15 37.15 Q30.65 37.15 30.3 36.8 29.95 36.45 29.95 35.95 29.95 35.45 30.3 35.1 30.65 34.75 31.15 34.75 M36.7 31.9 L37.3 32.15 37.5 32.7 37.3 33.3 36.7 33.5 36.15 33.3 35.9 32.7 Q35.9 32.35 36.15 32.15 36.35 31.9 36.7 31.9 M23.65 28.8 Q24.15 28.8 24.5 29.2 24.85 29.55 24.85 30.05 L24.5 30.95 23.65 31.3 Q23.15 31.3 22.8 30.95 22.45 30.55 22.45 30.05 22.45 29.55 22.8 29.2 23.15 28.8 23.65 28.8 M26.15 23.95 L26.35 23.55 26.75 23.35 27.2 23.55 27.35 23.95 27.2 24.4 26.75 24.55 26.35 24.4 26.15 23.95 M19.2 19.55 Q19.2 18.9 19.65 18.45 20.1 17.95 20.75 17.95 21.4 17.95 21.85 18.45 22.3 18.9 22.3 19.55 22.3 20.2 21.85 20.7 21.4 21.15 20.75 21.15 20.1 21.15 19.65 20.7 19.2 20.2 19.2 19.55 M29.3 28.8 L29.5 28.3 30.0 28.1 30.5 28.3 30.7 28.8 30.5 29.3 Q30.3 29.5 30.0 29.5 L29.5 29.3 29.3 28.8 M40.85 36.75 L41.05 37.4 40.85 38.1 40.3 38.35 39.8 38.1 39.55 37.4 Q39.55 37.0 39.8 36.75 40.0 36.45 40.3 36.45 40.6 36.45 40.85 36.75 M42.9 31.45 L43.1 32.05 42.9 32.65 42.45 32.9 42.0 32.65 41.8 32.05 42.0 31.45 Q42.2 31.2 42.45 31.2 L42.9 31.45 M48.25 34.5 Q47.75 34.5 47.4 34.15 47.0 33.75 47.0 33.2 47.0 32.65 47.4 32.3 47.75 31.9 48.25 31.9 48.75 31.9 49.15 32.3 49.5 32.65 49.5 33.2 49.5 33.75 49.15 34.15 L48.25 34.5 M48.15 26.9 L48.35 27.4 48.15 27.9 47.7 28.1 47.25 27.9 47.05 27.4 47.25 26.9 47.7 26.7 48.15 26.9" fill="#ff9900" fill-rule="evenodd" stroke="none"/>
    <path d="M56.65 27.2 Q56.8 27.05 57.05 27.05 L57.5 27.2 57.7 27.75 57.5 28.3 57.05 28.55 56.65 28.3 56.45 27.75 56.65 27.2 M58.4 32.3 L58.05 32.45 Q57.9 32.45 57.7 32.3 L57.55 31.9 Q57.55 31.65 57.7 31.5 L58.05 31.3 58.4 31.5 58.5 31.9 58.4 32.3 M55.95 34.2 L55.65 35.0 Q55.4 35.3 54.95 35.3 54.65 35.3 54.35 35.0 54.05 34.65 54.05 34.2 54.05 33.75 54.35 33.4 54.65 33.1 54.95 33.1 55.4 33.1 55.65 33.4 L55.95 34.2 M56.9 40.1 Q57.2 40.1 57.4 40.4 L57.65 41.0 57.4 41.6 56.9 41.85 56.4 41.6 56.2 41.0 56.4 40.4 56.9 40.1 M58.65 36.75 Q58.75 36.6 58.95 36.6 L59.2 36.75 59.3 37.05 59.2 37.35 58.95 37.5 Q58.75 37.5 58.65 37.35 L58.55 37.05 58.65 36.75 M70.05 26.7 L70.15 26.5 Q70.35 26.5 70.4 26.7 L70.45 26.9 70.4 27.2 70.15 27.3 70.05 27.2 69.9 26.9 70.05 26.7 M73.5 27.05 L73.7 26.5 Q73.85 26.25 74.1 26.25 74.35 26.25 74.55 26.5 74.75 26.7 74.75 27.05 L74.55 27.6 74.1 27.75 73.7 27.6 73.5 27.05 M68.55 22.6 L68.75 23.15 68.55 23.7 68.1 23.85 67.7 23.7 67.5 23.15 67.7 22.6 Q67.85 22.4 68.1 22.4 L68.55 22.6 M60.5 23.45 L60.85 23.25 61.25 23.45 61.4 23.85 61.25 24.35 60.85 24.45 60.5 24.35 60.35 23.85 Q60.35 23.6 60.5 23.45 M61.1 28.4 L60.8 28.55 60.5 28.4 60.4 28.05 60.5 27.75 60.8 27.65 61.1 27.75 61.15 28.05 61.1 28.4 M65.15 25.95 L65.05 26.25 64.75 26.4 64.45 26.25 64.35 25.95 64.45 25.6 64.75 25.5 65.05 25.6 65.15 25.95 M61.05 39.8 L61.35 39.95 61.45 40.25 61.35 40.6 61.05 40.7 60.75 40.6 60.6 40.25 Q60.6 40.05 60.75 39.95 60.85 39.8 61.05 39.8 M76.05 32.7 L75.85 32.15 76.05 31.6 76.6 31.3 Q76.9 31.3 77.05 31.6 L77.25 32.15 77.05 32.7 Q76.9 32.9 76.6 32.9 76.3 32.9 76.05 32.7 M73.8 30.7 L73.65 31.05 73.4 31.2 73.05 31.05 Q72.9 30.95 72.9 30.7 72.9 30.5 73.05 30.4 L73.4 30.3 73.65 30.4 73.8 30.7 M74.1 34.0 L74.25 34.35 74.1 34.65 73.85 34.8 73.5 34.65 73.45 34.35 73.5 34.0 Q73.7 33.8 73.85 33.8 L74.1 34.0 M72.15 39.3 L72.3 39.0 Q72.4 38.85 72.55 38.85 L72.9 39.0 72.95 39.3 72.9 39.65 72.55 39.8 72.3 39.65 72.15 39.3 M75.45 38.15 Q75.45 37.8 75.6 37.6 75.75 37.35 76.05 37.35 L76.55 37.6 76.75 38.15 76.55 38.7 76.05 38.9 Q75.75 38.9 75.6 38.7 L75.45 38.15 M72.9 42.2 Q73.2 42.2 73.45 42.5 L73.7 43.1 73.45 43.7 72.9 43.95 72.35 43.7 72.15 43.1 72.35 42.5 Q72.55 42.2 72.9 42.2 M69.45 42.7 L69.15 42.9 68.85 42.7 68.75 42.35 68.85 42.0 69.15 41.85 69.45 42.0 69.6 42.35 69.45 42.7 M65.8 42.75 L65.75 43.2 65.4 43.3 65.05 43.2 64.9 42.75 65.05 42.45 Q65.2 42.3 65.4 42.3 L65.75 42.45 65.8 42.75 M68.25 45.8 L68.1 46.25 67.75 46.4 67.35 46.25 67.25 45.8 67.35 45.4 67.75 45.2 68.1 45.4 68.25 45.8 M62.55 44.85 L62.3 45.45 61.8 45.7 61.25 45.45 61.05 44.85 61.25 44.25 Q61.5 44.0 61.8 44.0 62.05 44.0 62.3 44.25 L62.55 44.85" fill="#ff0000" fill-rule="evenodd" stroke="none"/>
    <path d="M8.35 16.25 Q8.35 16.85 8.1 16.8 L7.8 17.0 7.25 16.25 Q7.25 15.3 8.25 15.6 L8.35 16.25 M17.15 19.85 Q17.15 20.8 16.55 20.8 L15.9 20.4 15.7 19.85 Q15.7 19.0 17.0 19.25 L17.15 19.4 17.15 19.85 M10.8 18.6 L10.5 20.3 10.15 21.8 Q9.9 21.5 9.9 20.6 L10.25 17.7 10.6 17.7 10.8 18.6 M12.5 24.5 Q12.5 23.7 13.65 23.35 L16.25 23.4 16.35 23.7 Q15.45 24.4 13.0 25.0 L12.65 24.95 12.5 24.5 M11.75 26.75 L11.85 26.4 Q12.45 26.45 13.9 28.15 L16.1 30.8 15.95 31.2 15.7 31.25 Q14.9 31.25 13.25 29.05 L11.75 26.75 M17.2 28.3 Q17.2 27.8 17.9 27.7 18.55 27.5 18.55 28.35 L18.45 28.8 Q18.35 29.1 17.9 29.1 L17.5 29.0 17.2 28.8 17.2 28.3 M6.4 22.1 L7.75 24.3 7.7 24.5 6.2 23.3 4.75 21.5 Q5.55 20.65 6.4 22.1 M3.2 24.6 L3.25 25.0 3.15 25.45 2.7 25.7 2.0 25.1 Q2.0 23.95 3.1 24.4 L3.2 24.6 M6.95 29.0 Q5.9 30.5 4.6 30.8 6.8 27.55 8.35 26.45 L6.95 29.0 M5.9 34.0 L5.2 33.6 5.1 33.1 Q5.1 32.15 5.9 32.15 6.7 32.15 6.7 33.1 6.65 34.0 5.9 34.0 M9.4 29.3 Q9.55 26.15 10.15 25.75 10.7 26.4 10.85 29.65 L10.85 33.8 10.8 40.1 10.4 48.3 Q10.0 48.45 9.75 42.1 L9.35 33.8 9.4 29.3" fill="#00ff00" fill-rule="evenodd" stroke="none"/>
    <path d="M30.35 3.05 Q30.1 2.75 29.75 2.75 29.4 2.75 29.15 3.05 L28.9 3.65 29.15 4.3 29.75 4.55 30.35 4.3 30.6 3.65 30.35 3.05 M24.55 8.8 Q24.25 8.45 23.85 8.45 23.45 8.45 23.2 8.8 22.9 9.15 22.9 9.65 22.9 10.15 23.2 10.5 23.45 10.85 23.85 10.85 24.25 10.85 24.55 10.5 L24.8 9.65 24.55 8.8 M26.0 15.45 L25.4 15.2 Q25.05 15.2 24.85 15.45 24.6 15.65 24.6 16.0 L24.85 16.6 Q25.05 16.8 25.4 16.8 L26.0 16.6 26.2 16.0 26.0 15.45 M35.05 6.9 L35.25 7.4 Q35.45 7.6 35.75 7.6 L36.25 7.4 36.45 6.9 36.25 6.4 35.75 6.2 35.25 6.4 35.05 6.9 M30.1 9.7 L29.65 9.5 Q29.4 9.5 29.2 9.7 L29.0 10.15 29.2 10.6 Q29.4 10.8 29.65 10.8 L30.1 10.6 30.3 10.15 30.1 9.7 M29.3 28.8 L29.5 29.3 30.0 29.5 Q30.3 29.5 30.5 29.3 L30.7 28.8 30.5 28.3 30.0 28.1 29.5 28.3 29.3 28.8 M19.2 19.55 Q19.2 20.2 19.65 20.7 20.1 21.15 20.75 21.15 21.4 21.15 21.85 20.7 22.3 20.2 22.3 19.55 22.3 18.9 21.85 18.45 21.4 17.95 20.75 17.95 20.1 17.95 19.65 18.45 19.2 18.9 19.2 19.55 M26.15 23.95 L26.35 24.4 26.75 24.55 27.2 24.4 27.35 23.95 27.2 23.55 26.75 23.35 26.35 23.55 26.15 23.95 M23.65 28.8 Q23.15 28.8 22.8 29.2 22.45 29.55 22.45 30.05 22.45 30.55 22.8 30.95 23.15 31.3 23.65 31.3 L24.5 30.95 24.85 30.05 Q24.85 29.55 24.5 29.2 24.15 28.8 23.65 28.8 M36.7 31.9 Q36.35 31.9 36.15 32.15 35.9 32.35 35.9 32.7 L36.15 33.3 36.7 33.5 37.3 33.3 37.5 32.7 37.3 32.15 36.7 31.9 M31.15 34.75 Q30.65 34.75 30.3 35.1 29.95 35.45 29.95 35.95 29.95 36.45 30.3 36.8 30.65 37.15 31.15 37.15 L32.0 36.8 32.35 35.95 Q32.35 35.45 32.0 35.1 31.65 34.75 31.15 34.75 M41.55 1.8 Q41.25 1.5 40.85 1.5 40.45 1.5 40.15 1.8 39.85 2.1 39.85 2.55 39.85 3.0 40.15 3.3 40.45 3.6 40.85 3.6 L41.55 3.3 41.85 2.55 41.55 1.8 M44.45 8.35 L44.35 7.95 Q44.2 7.75 44.05 7.75 43.9 7.75 43.8 7.95 43.65 8.1 43.65 8.35 L43.8 8.8 44.05 8.95 44.35 8.8 44.45 8.35 M48.45 13.7 L48.25 14.2 48.45 14.7 48.9 14.9 49.35 14.7 49.55 14.2 49.35 13.7 48.9 13.5 48.45 13.7 M50.75 7.8 Q50.45 7.5 50.05 7.5 49.65 7.5 49.35 7.8 49.05 8.1 49.05 8.55 49.05 9.0 49.35 9.3 49.65 9.6 50.05 9.6 L50.75 9.3 51.05 8.55 50.75 7.8 M53.05 15.6 Q52.7 15.9 52.7 16.4 52.7 16.9 53.05 17.25 L53.85 17.55 54.7 17.25 55.0 16.4 54.7 15.6 Q54.35 15.25 53.85 15.25 53.35 15.25 53.05 15.6 M49.0 19.7 L49.2 20.2 49.65 20.4 Q49.9 20.4 50.1 20.2 L50.3 19.7 50.1 19.2 Q49.9 19.0 49.65 19.0 L49.2 19.2 49.0 19.7 M53.05 24.5 Q52.6 24.5 52.3 24.85 51.95 25.15 51.95 25.6 51.95 26.05 52.3 26.4 L53.05 26.7 53.85 26.4 54.15 25.6 53.85 24.85 Q53.5 24.5 53.05 24.5 M48.15 26.9 L47.7 26.7 47.25 26.9 47.05 27.4 47.25 27.9 47.7 28.1 48.15 27.9 48.35 27.4 48.15 26.9 M48.25 34.5 L49.15 34.15 Q49.5 33.75 49.5 33.2 49.5 32.65 49.15 32.3 48.75 31.9 48.25 31.9 47.75 31.9 47.4 32.3 47.0 32.65 47.0 33.2 47.0 33.75 47.4 34.15 47.75 34.5 48.25 34.5 M42.9 31.45 L42.45 31.2 Q42.2 31.2 42.0 31.45 L41.8 32.05 42.0 32.65 42.45 32.9 42.9 32.65 43.1 32.05 42.9 31.45 M40.85 36.75 Q40.6 36.45 40.3 36.45 40.0 36.45 39.8 36.75 39.55 37.0 39.55 37.4 L39.8 38.1 40.3 38.35 40.85 38.1 41.05 37.4 40.85 36.75" fill="none" stroke="#ff9900" stroke-linecap="round" stroke-linejoin="round" stroke-width="1.0"/>
    <path d="M56.65 27.2 Q56.8 27.05 57.05 27.05 L57.5 27.2 57.7 27.75 57.5 28.3 57.05 28.55 56.65 28.3 56.45 27.75 56.65 27.2 M58.4 32.3 L58.05 32.45 Q57.9 32.45 57.7 32.3 L57.55 31.9 Q57.55 31.65 57.7 31.5 L58.05 31.3 58.4 31.5 58.5 31.9 58.4 32.3 M55.95 34.2 L55.65 35.0 Q55.4 35.3 54.95 35.3 54.65 35.3 54.35 35.0 54.05 34.65 54.05 34.2 54.05 33.75 54.35 33.4 54.65 33.1 54.95 33.1 55.4 33.1 55.65 33.4 L55.95 34.2 M56.9 40.1 Q57.2 40.1 57.4 40.4 L57.65 41.0 57.4 41.6 56.9 41.85 56.4 41.6 56.2 41.0 56.4 40.4 56.9 40.1 M58.65 36.75 Q58.75 36.6 58.95 36.6 L59.2 36.75 59.3 37.05 59.2 37.35 58.95 37.5 Q58.75 37.5 58.65 37.35 L58.55 37.05 58.65 36.75 M70.05 26.7 L70.15 26.5 Q70.35 26.5 70.4 26.7 L70.45 26.9 70.4 27.2 70.15 27.3 70.05 27.2 69.9 26.9 70.05 26.7 M73.5 27.05 L73.7 26.5 Q73.85 26.25 74.1 26.25 74.35 26.25 74.55 26.5 74.75 26.7 74.75 27.05 L74.55 27.6 74.1 27.75 73.7 27.6 73.5 27.05 M68.55 22.6 L68.75 23.15 68.55 23.7 68.1 23.85 67.7 23.7 67.5 23.15 67.7 22.6 Q67.85 22.4 68.1 22.4 L68.55 22.6 M60.5 23.45 L60.85 23.25 61.25 23.45 61.4 23.85 61.25 24.35 60.85 24.45 60.5 24.35 60.35 23.85 Q60.35 23.6 60.5 23.45 M61.1 28.4 L60.8 28.55 60.5 28.4 60.4 28.05 60.5 27.75 60.8 27.65 61.1 27.75 61.15 28.05 61.1 28.4 M65.15 25.95 L65.05 26.25 64.75 26.4 64.45 26.25 64.35 25.95 64.45 25.6 64.75 25.5 65.05 25.6 65.15 25.95 M61.05 39.8 L61.35 39.95 61.45 40.25 61.35 40.6 61.05 40.7 60.75 40.6 60.6 40.25 Q60.6 40.05 60.75 39.95 60.85 39.8 61.05 39.8 M76.05 32.7 L75.85 32.15 76.05 31.6 76.6 31.3 Q76.9 31.3 77.05 31.6 L77.25 32.15 77.05 32.7 Q76.9 32.9 76.6 32.9 76.3 32.9 76.05 32.7 M73.8 30.7 L73.65 31.05 73.4 31.2 73.05 31.05 Q72.9 30.95 72.9 30.7 72.9 30.5 73.05 30.4 L73.4 30.3 73.65 30.4 73.8 30.7 M74.1 34.0 L74.25 34.35 74.1 34.65 73.85 34.8 73.5 34.65 73.45 34.35 73.5 34.0 Q73.7 33.8 73.85 33.8 L74.1 34.0 M72.15 39.3 L72.3 39.0 Q72.4 38.85 72.55 38.85 L72.9 39.0 72.95 39.3 72.9 39.65 72.55 39.8 72.3 39.65 72.15 39.3 M75.45 38.15 Q75.45 37.8 75.6 37.6 75.75 37.35 76.05 37.35 L76.55 37.6 76.75 38.15 76.55 38.7 76.05 38.9 Q75.75 38.9 75.6 38.7 L75.45 38.15 M72.9 42.2 Q73.2 42.2 73.45 42.5 L73.7 43.1 73.45 43.7 72.9 43.95 72.35 43.7 72.15 43.1 72.35 42.5 Q72.55 42.2 72.9 42.2 M69.45 42.7 L69.15 42.9 68.85 42.7 68.75 42.35 68.85 42.0 69.15 41.85 69.45 42.0 69.6 42.35 69.45 42.7 M65.8 42.75 L65.75 43.2 65.4 43.3 65.05 43.2 64.9 42.75 65.05 42.45 Q65.2 42.3 65.4 42.3 L65.75 42.45 65.8 42.75 M68.25 45.8 L68.1 46.25 67.75 46.4 67.35 46.25 67.25 45.8 67.35 45.4 67.75 45.2 68.1 45.4 68.25 45.8 M62.55 44.85 L62.3 45.45 61.8 45.7 61.25 45.45 61.05 44.85 61.25 44.25 Q61.5 44.0 61.8 44.0 62.05 44.0 62.3 44.25 L62.55 44.85" fill="none" stroke="#ff0000" stroke-linecap="round" stroke-linejoin="round" stroke-width="1.0"/>
    <path d="M8.35 16.25 Q8.35 16.85 8.1 16.8 L7.8 17.0 7.25 16.25 Q7.25 15.3 8.25 15.6 L8.35 16.25 M10.8 18.6 L10.5 20.3 10.15 21.8 Q9.9 21.5 9.9 20.6 L10.25 17.7 10.6 17.7 10.8 18.6 M12.5 24.5 Q12.5 23.7 13.65 23.35 L16.25 23.4 16.35 23.7 Q15.45 24.4 13.0 25.0 L12.65 24.95 12.5 24.5 M6.4 22.1 L7.75 24.3 7.7 24.5 6.2 23.3 4.75 21.5 Q5.55 20.65 6.4 22.1 M5.9 34.0 L5.2 33.6 5.1 33.1 Q5.1 32.15 5.9 32.15 6.7 32.15 6.7 33.1 6.65 34.0 5.9 34.0" fill="none" stroke="#00ff00" stroke-linecap="round" stroke-linejoin="round" stroke-width="1.0"/>
  </g>
</svg>
