<?xml version="1.0" encoding="UTF-8" standalone="no"?>
<svg xmlns:xlink="http://www.w3.org/1999/xlink" height="156.8px" width="192.6px" xmlns="http://www.w3.org/2000/svg">
  <g transform="matrix(1.0, 0.0, 0.0, 1.0, 1.0, -57.8)">
    <path d="M180.55 172.5 L180.45 185.1 172.4 186.2 165.5 187.1 Q124.0 193.25 82.4 198.3 L0.0 208.75 0.0 190.85 180.55 172.5" fill="#c02e0a" fill-rule="evenodd" stroke="none"/>
    <path d="M165.5 187.1 L172.4 186.2 172.75 193.05 165.5 196.15 165.5 187.1" fill="#656c6d" fill-rule="evenodd" stroke="none"/>
    <path d="M172.75 193.05 L173.45 213.6 172.25 213.6 171.75 200.9 171.5 200.9 171.1 212.8 171.1 213.6 165.75 213.6 165.55 200.35 165.5 196.15 172.75 193.05" fill="#919a9b" fill-rule="evenodd" stroke="none"/>
    <path d="M0.0 208.75 L82.4 198.3 Q124.0 193.25 165.5 187.1 L165.5 196.15 165.55 200.35 163.95 204.55 158.45 205.45 155.3 213.6 147.75 213.6 149.75 207.3 111.15 213.6 0.1 213.6 0.0 208.75" fill="#585657" fill-rule="evenodd" stroke="none"/>
    <path d="M180.55 172.5 L0.0 190.85 0.0 145.15 159.15 140.7 180.55 172.5" fill="#000000" fill-rule="evenodd" stroke="none"/>
    <path d="M0.0 145.15 L0.0 58.8 190.6 58.8 159.15 140.7 0.0 145.15" fill="#cacaca" fill-rule="evenodd" stroke="none"/>
    <path d="M163.95 204.55 L160.6 213.6 155.3 213.6 158.45 205.45 163.95 204.55 M147.75 213.6 L111.15 213.6 149.75 207.3 147.75 213.6" fill="#b9b9b9" fill-rule="evenodd" stroke="none"/>
    <path d="M172.25 213.6 L171.1 213.6 171.1 212.8 171.5 200.9 171.75 200.9 172.25 213.6" fill="#e8eaea" fill-rule="evenodd" stroke="none"/>
    <path d="M172.4 186.2 L180.45 185.1 180.55 172.5 0.0 190.85 0.0 208.75 82.4 198.3 Q124.0 193.25 165.5 187.1 L172.4 186.2 172.75 193.05 173.45 213.6 M165.75 213.6 L165.55 200.35 163.95 204.55 160.6 213.6 M0.1 213.6 L0.0 208.75 M165.5 187.1 L165.5 196.15 165.55 200.35 M0.0 190.85 L0.0 145.15 0.0 58.8 M190.6 58.8 L159.15 140.7 180.55 172.5 M159.15 140.7 L0.0 145.15" fill="none" stroke="#777576" stroke-linecap="round" stroke-linejoin="round" stroke-width="2.0"/>
    <path d="M140.45 153.1 Q139.5 153.1 138.45 152.45 137.45 151.8 136.85 150.85 136.25 149.95 136.45 149.3 136.65 148.65 137.6 148.7 138.45 148.7 139.5 149.35 140.55 150.05 141.05 150.9 141.7 151.85 141.45 152.5 141.3 153.1 140.45 153.1 M142.25 148.95 Q142.45 148.3 143.4 148.35 144.25 148.35 145.25 149.0 146.3 149.65 146.8 150.65 147.4 151.55 147.15 152.15 147.0 152.75 146.15 152.75 145.25 152.75 144.2 152.1 L142.6 150.55 Q142.1 149.6 142.25 148.95 M148.4 150.25 Q147.8 149.35 148.05 148.65 148.3 148.1 149.15 148.1 150.0 148.15 151.0 148.75 152.0 149.45 152.55 150.35 153.05 151.25 152.9 151.9 152.65 152.55 151.85 152.55 150.95 152.5 149.95 151.8 148.95 151.15 148.4 150.25 M133.65 149.5 Q134.7 150.2 135.35 151.05 135.95 152.05 135.75 152.7 135.5 153.3 134.65 153.3 133.75 153.25 132.7 152.6 131.6 152.0 131.05 151.0 130.35 150.1 130.6 149.45 130.85 148.8 131.7 148.85 132.55 148.8 133.65 149.5 M130.05 164.6 Q129.15 164.6 128.1 163.9 127.0 163.3 126.45 162.4 125.85 161.5 126.05 160.85 126.2 160.25 127.1 160.25 128.05 160.25 129.15 160.9 130.15 161.55 130.75 162.45 131.3 163.35 131.1 163.9 130.95 164.6 130.05 164.6 M132.0 160.6 Q132.2 159.95 133.05 159.95 133.9 159.95 134.95 160.6 136.0 161.2 136.65 162.1 137.2 162.95 136.95 163.6 136.8 164.3 135.95 164.3 135.05 164.25 133.9 163.6 132.95 163.0 132.4 162.1 131.75 161.2 132.0 160.6 M138.1 161.85 Q137.55 160.9 137.75 160.3 137.95 159.7 138.85 159.7 139.7 159.7 140.7 160.3 141.75 160.95 142.3 161.85 142.9 162.75 142.6 163.35 142.45 163.95 141.6 163.95 140.75 164.0 139.7 163.4 138.75 162.75 138.1 161.85 M150.05 159.15 Q150.95 159.15 151.95 159.75 152.9 160.4 153.45 161.3 153.95 162.15 153.75 162.7 153.6 163.35 152.7 163.35 151.85 163.35 150.9 162.7 149.85 162.1 149.35 161.25 148.85 160.35 149.05 159.7 149.2 159.15 150.05 159.15 M143.4 160.15 Q143.65 159.5 144.5 159.5 145.35 159.5 146.3 160.15 147.35 160.75 147.9 161.7 148.45 162.5 148.2 163.1 148.05 163.75 147.15 163.75 146.3 163.75 145.3 163.1 144.3 162.55 143.75 161.7 143.2 160.75 143.4 160.15 M123.4 151.5 Q124.1 152.45 123.8 153.1 123.6 153.7 122.7 153.7 121.75 153.65 120.7 153.0 119.6 152.4 118.9 151.45 118.35 150.45 118.5 149.8 118.7 149.15 119.7 149.2 120.6 149.15 121.7 149.85 122.85 150.5 123.4 151.5 M127.75 149.65 Q128.85 150.3 129.5 151.25 130.05 152.15 129.9 152.8 129.65 153.5 128.8 153.45 127.85 153.5 126.75 152.75 125.65 152.05 125.1 151.15 124.45 150.2 124.65 149.5 124.9 148.9 125.8 148.95 126.7 148.95 127.75 149.65 M117.75 153.45 Q117.6 154.05 116.7 154.05 115.7 154.1 114.6 153.4 L112.75 151.75 Q112.2 150.85 112.4 150.15 112.55 149.45 113.55 149.5 114.45 149.55 115.65 150.25 116.75 150.9 117.3 151.8 118.0 152.8 117.75 153.45 M122.15 164.3 Q121.1 163.75 120.5 162.9 119.9 161.9 120.05 161.3 120.3 160.65 121.2 160.6 122.1 160.6 123.15 161.3 124.25 161.9 124.9 162.85 125.5 163.7 125.25 164.3 125.1 165.0 124.15 165.0 123.25 165.0 122.15 164.3 M154.6 147.7 Q155.4 147.65 156.45 148.35 L158.0 149.9 Q158.5 150.85 158.35 151.45 158.1 152.05 157.3 152.05 156.45 152.05 155.45 151.4 154.45 150.8 153.95 149.85 153.3 148.95 153.55 148.3 153.8 147.7 154.6 147.7 M157.5 159.5 Q158.45 160.1 159.05 160.95 159.5 161.75 159.25 162.4 159.1 163.05 158.3 163.05 157.5 163.05 156.4 162.4 155.5 161.8 155.0 160.95 154.4 160.1 154.65 159.5 154.9 158.85 155.65 158.85 156.5 158.85 157.5 159.5 M162.8 158.95 Q163.8 159.5 164.25 160.45 164.8 161.3 164.5 161.9 164.3 162.45 163.5 162.45 162.75 162.5 161.75 161.9 160.85 161.3 160.3 160.45 159.8 159.5 160.0 158.9 160.2 158.3 161.05 158.3 161.85 158.3 162.8 158.95" fill="#d27053" fill-rule="evenodd" stroke="none"/>
    <path d="M138.1 158.65 Q137.25 158.65 136.2 158.05 135.2 157.4 134.65 156.55 133.95 155.6 134.2 154.95 134.5 154.35 135.35 154.35 136.2 154.35 137.2 155.0 138.2 155.6 138.85 156.6 139.45 157.45 139.25 158.05 139.0 158.65 138.1 158.65 M133.5 158.25 Q133.25 158.9 132.4 158.95 131.5 158.9 130.4 158.25 L128.75 156.7 Q128.15 155.85 128.3 155.15 128.6 154.45 129.5 154.5 130.35 154.5 131.4 155.15 132.45 155.8 133.1 156.75 133.7 157.65 133.5 158.25 M132.65 166.2 Q133.7 166.8 134.3 167.75 134.9 168.55 134.65 169.2 134.45 169.85 133.6 169.85 132.7 169.9 131.65 169.25 L130.05 167.8 Q129.4 166.85 129.6 166.2 129.8 165.6 130.75 165.65 131.65 165.65 132.65 166.2 M136.55 165.25 Q137.4 165.2 138.45 165.85 L140.1 167.35 Q140.6 168.2 140.45 168.85 140.2 169.45 139.4 169.45 138.5 169.45 137.45 168.85 L135.95 167.4 Q135.25 166.5 135.5 165.85 135.7 165.25 136.55 165.25 M146.1 156.0 Q145.45 155.05 145.7 154.45 145.9 153.8 146.8 153.8 147.65 153.85 148.6 154.45 149.6 155.05 150.2 156.0 150.7 156.9 150.5 157.45 150.3 158.1 149.45 158.1 148.6 158.1 147.6 157.45 146.55 156.85 146.1 156.0 M140.4 156.35 Q139.7 155.45 139.9 154.8 140.2 154.15 141.1 154.15 141.95 154.15 142.95 154.85 L144.55 156.4 Q145.05 157.2 144.9 157.85 144.65 158.45 143.8 158.5 L141.95 157.85 Q140.85 157.2 140.4 156.35 M144.1 165.6 Q145.1 166.15 145.7 167.05 L145.7 167.1 145.85 168.25 Q145.65 168.9 144.85 168.95 143.95 168.95 142.9 168.3 L141.5 166.95 141.4 166.85 141.35 166.8 141.35 166.75 141.3 166.7 Q141.0 166.1 141.15 165.6 141.4 164.95 142.2 165.0 143.05 165.0 144.1 165.6 M147.85 164.8 Q148.65 164.75 149.6 165.35 150.65 165.95 151.2 166.8 151.7 167.65 151.45 168.25 151.3 168.9 150.5 168.9 149.6 168.9 148.6 168.3 L147.1 166.85 Q146.55 165.95 146.7 165.4 146.95 164.75 147.85 164.8 M119.4 155.85 Q120.5 156.45 121.15 157.45 121.75 158.3 121.6 158.95 121.35 159.55 120.45 159.6 119.55 159.55 118.5 158.95 117.3 158.25 116.75 157.4 116.05 156.45 116.2 155.85 116.5 155.15 117.4 155.15 118.35 155.15 119.4 155.85 M126.4 159.2 Q125.5 159.2 124.45 158.55 123.3 157.95 122.75 157.05 122.1 156.05 122.35 155.4 122.55 154.75 123.45 154.8 124.35 154.75 125.35 155.4 126.5 156.05 127.1 157.05 127.7 157.95 127.5 158.55 127.3 159.2 126.4 159.2 M123.75 166.65 Q123.95 166.05 124.9 166.05 125.8 166.0 126.8 166.65 127.95 167.25 128.5 168.15 129.05 169.0 128.85 169.65 128.7 170.3 127.85 170.3 126.9 170.3 125.85 169.65 124.8 169.05 124.2 168.2 123.6 167.3 123.75 166.65 M159.65 153.7 Q160.55 154.35 161.15 155.25 161.65 156.1 161.45 156.7 161.2 157.3 160.4 157.3 L158.6 156.7 Q157.6 156.05 157.2 155.25 156.55 154.3 156.8 153.7 157.1 153.05 157.9 153.1 158.7 153.1 159.65 153.7 M156.15 157.2 Q155.95 157.8 155.1 157.85 154.25 157.85 153.25 157.2 152.3 156.55 151.75 155.7 151.15 154.8 151.35 154.15 151.6 153.5 152.45 153.55 153.3 153.55 154.25 154.2 L155.8 155.75 Q156.35 156.6 156.15 157.2 M155.15 164.95 Q156.15 165.55 156.65 166.45 157.2 167.25 156.9 167.85 156.7 168.45 155.9 168.55 155.1 168.5 154.1 167.9 153.15 167.3 152.65 166.5 152.1 165.55 152.25 164.85 152.5 164.35 153.35 164.4 154.2 164.35 155.15 164.95 M158.9 164.0 Q159.65 163.95 160.6 164.6 L162.1 166.1 Q162.6 166.9 162.4 167.5 162.15 168.1 161.4 168.1 L159.6 167.55 Q158.65 166.95 158.2 166.1 157.6 165.25 157.85 164.6 158.05 164.0 158.9 164.0 M163.1 164.1 Q163.3 163.45 164.1 163.5 164.9 163.5 165.85 164.1 L167.3 165.5 167.3 165.55 167.45 166.65 Q167.25 167.3 166.45 167.35 165.65 167.3 164.65 166.7 L163.45 165.5 163.4 165.45 163.25 165.25 163.25 165.2 163.2 165.2 Q162.95 164.6 163.1 164.1" fill="#ffff99" fill-rule="evenodd" stroke="none"/>
    <path d="M140.45 153.1 Q139.5 153.1 138.45 152.45 137.45 151.8 136.85 150.85 136.25 149.95 136.45 149.3 136.65 148.65 137.6 148.7 138.45 148.7 139.5 149.35 140.55 150.05 141.05 150.9 141.7 151.85 141.45 152.5 141.3 153.1 140.45 153.1 M142.25 148.95 Q142.45 148.3 143.4 148.35 144.25 148.35 145.25 149.0 146.3 149.65 146.8 150.65 147.4 151.55 147.15 152.15 147.0 152.75 146.15 152.75 145.25 152.75 144.2 152.1 L142.6 150.55 Q142.1 149.6 142.25 148.95 M148.4 150.25 Q147.8 149.35 148.05 148.65 148.3 148.1 149.15 148.1 150.0 148.15 151.0 148.75 152.0 149.45 152.55 150.35 153.05 151.25 152.9 151.9 152.65 152.55 151.85 152.55 150.95 152.5 149.95 151.8 148.95 151.15 148.4 150.25 M133.65 149.5 Q134.7 150.2 135.35 151.05 135.95 152.05 135.75 152.7 135.5 153.3 134.65 153.3 133.75 153.25 132.7 152.6 131.6 152.0 131.05 151.0 130.35 150.1 130.6 149.45 130.85 148.8 131.7 148.85 132.55 148.8 133.65 149.5 M138.1 158.65 Q137.25 158.65 136.2 158.05 135.2 157.4 134.65 156.55 133.95 155.6 134.2 154.95 134.5 154.35 135.35 154.35 136.2 154.35 137.2 155.0 138.2 155.6 138.85 156.6 139.45 157.45 139.25 158.05 139.0 158.65 138.1 158.65 M133.5 158.25 Q133.25 158.9 132.4 158.95 131.5 158.9 130.4 158.25 L128.75 156.7 Q128.15 155.85 128.3 155.15 128.6 154.45 129.5 154.5 130.35 154.5 131.4 155.15 132.45 155.8 133.1 156.75 133.7 157.65 133.5 158.25 M130.05 164.6 Q129.15 164.6 128.1 163.9 127.0 163.3 126.45 162.4 125.85 161.5 126.05 160.85 126.2 160.25 127.1 160.25 128.05 160.25 129.15 160.9 130.15 161.55 130.75 162.45 131.3 163.35 131.1 163.9 130.95 164.6 130.05 164.6 M132.65 166.2 Q133.7 166.8 134.3 167.75 134.9 168.55 134.65 169.2 134.45 169.85 133.6 169.85 132.7 169.9 131.65 169.25 L130.05 167.8 Q129.4 166.85 129.6 166.2 129.8 165.6 130.75 165.65 131.65 165.65 132.65 166.2 M132.0 160.6 Q132.2 159.95 133.05 159.95 133.9 159.95 134.95 160.6 136.0 161.2 136.65 162.1 137.2 162.95 136.95 163.6 136.8 164.3 135.95 164.3 135.05 164.25 133.9 163.6 132.95 163.0 132.4 162.1 131.75 161.2 132.0 160.6 M136.55 165.25 Q137.4 165.2 138.45 165.85 L140.1 167.35 Q140.6 168.2 140.45 168.85 140.2 169.45 139.4 169.45 138.5 169.45 137.45 168.85 L135.95 167.4 Q135.25 166.5 135.5 165.85 135.7 165.25 136.55 165.25 M138.1 161.85 Q137.55 160.9 137.75 160.3 137.95 159.7 138.85 159.7 139.7 159.7 140.7 160.3 141.75 160.95 142.3 161.85 142.9 162.75 142.6 163.35 142.45 163.95 141.6 163.95 140.75 164.0 139.7 163.4 138.75 162.75 138.1 161.85 M146.1 156.0 Q145.45 155.05 145.7 154.45 145.9 153.8 146.8 153.8 147.65 153.85 148.6 154.45 149.6 155.05 150.2 156.0 150.7 156.9 150.5 157.45 150.3 158.1 149.45 158.1 148.6 158.1 147.6 157.45 146.55 156.85 146.1 156.0 M150.05 159.15 Q150.95 159.15 151.95 159.75 152.9 160.4 153.45 161.3 153.95 162.15 153.75 162.7 153.6 163.35 152.7 163.35 151.85 163.35 150.9 162.7 149.85 162.1 149.35 161.25 148.85 160.35 149.05 159.7 149.2 159.15 150.05 159.15 M140.4 156.35 Q139.7 155.45 139.9 154.8 140.2 154.15 141.1 154.15 141.95 154.15 142.95 154.85 L144.55 156.4 Q145.05 157.2 144.9 157.85 144.65 158.45 143.8 158.5 L141.95 157.85 Q140.85 157.2 140.4 156.35 M143.4 160.15 Q143.65 159.5 144.5 159.5 145.35 159.5 146.3 160.15 147.35 160.75 147.9 161.7 148.45 162.5 148.2 163.1 148.05 163.75 147.15 163.75 146.3 163.75 145.3 163.1 144.3 162.55 143.75 161.7 143.2 160.75 143.4 160.15 M144.1 165.6 Q145.1 166.15 145.7 167.05 L145.7 167.1 145.85 168.25 Q145.65 168.9 144.85 168.95 143.95 168.95 142.9 168.3 L141.5 166.95 141.4 166.85 141.35 166.8 141.35 166.75 141.3 166.7 Q141.0 166.1 141.15 165.6 141.4 164.95 142.2 165.0 143.05 165.0 144.1 165.6 M147.85 164.8 Q148.65 164.75 149.6 165.35 150.65 165.95 151.2 166.8 151.7 167.65 151.45 168.25 151.3 168.9 150.5 168.9 149.6 168.9 148.6 168.3 L147.1 166.85 Q146.55 165.95 146.7 165.4 146.95 164.75 147.85 164.8 M123.4 151.5 Q124.1 152.45 123.8 153.1 123.6 153.7 122.7 153.7 121.75 153.65 120.7 153.0 119.6 152.4 118.9 151.45 118.35 150.45 118.5 149.8 118.7 149.15 119.7 149.2 120.6 149.15 121.7 149.85 122.85 150.5 123.4 151.5 M127.75 149.65 Q128.85 150.3 129.5 151.25 130.05 152.15 129.9 152.8 129.65 153.5 128.8 153.45 127.85 153.5 126.75 152.75 125.65 152.05 125.1 151.15 124.45 150.2 124.65 149.5 124.9 148.9 125.8 148.95 126.7 148.95 127.75 149.65 M117.75 153.45 Q117.6 154.05 116.7 154.05 115.7 154.1 114.6 153.4 L112.75 151.75 Q112.2 150.85 112.4 150.15 112.55 149.45 113.55 149.5 114.45 149.55 115.65 150.25 116.75 150.9 117.3 151.8 118.0 152.8 117.75 153.45 M119.4 155.85 Q120.5 156.45 121.15 157.45 121.75 158.3 121.6 158.95 121.35 159.55 120.45 159.6 119.55 159.55 118.5 158.95 117.3 158.25 116.75 157.4 116.05 156.45 116.2 155.85 116.5 155.15 117.4 155.15 118.35 155.15 119.4 155.85 M126.4 159.2 Q125.5 159.2 124.45 158.55 123.3 157.95 122.75 157.05 122.1 156.05 122.35 155.4 122.55 154.75 123.45 154.8 124.35 154.75 125.35 155.4 126.5 156.05 127.1 157.05 127.7 157.95 127.5 158.55 127.3 159.2 126.4 159.2 M122.15 164.3 Q121.1 163.75 120.5 162.9 119.9 161.9 120.05 161.3 120.3 160.65 121.2 160.6 122.1 160.6 123.15 161.3 124.25 161.9 124.9 162.85 125.5 163.7 125.25 164.3 125.1 165.0 124.15 165.0 123.25 165.0 122.15 164.3 M123.75 166.65 Q123.95 166.05 124.9 166.05 125.8 166.0 126.8 166.65 127.95 167.25 128.5 168.15 129.05 169.0 128.85 169.65 128.7 170.3 127.85 170.3 126.9 170.3 125.85 169.65 124.8 169.05 124.2 168.2 123.6 167.3 123.75 166.65 M154.6 147.7 Q155.4 147.65 156.45 148.35 L158.0 149.9 Q158.5 150.85 158.35 151.45 158.1 152.05 157.3 152.05 156.45 152.05 155.45 151.4 154.45 150.8 153.95 149.85 153.3 148.95 153.55 148.3 153.8 147.7 154.6 147.7 M159.65 153.7 Q160.55 154.35 161.15 155.25 161.65 156.1 161.45 156.7 161.2 157.3 160.4 157.3 L158.6 156.7 Q157.6 156.05 157.2 155.25 156.55 154.3 156.8 153.7 157.1 153.05 157.9 153.1 158.7 153.1 159.65 153.7 M156.15 157.2 Q155.95 157.8 155.1 157.85 154.25 157.85 153.25 157.2 152.3 156.55 151.75 155.7 151.15 154.8 151.35 154.15 151.6 153.5 152.45 153.55 153.3 153.55 154.25 154.2 L155.8 155.75 Q156.35 156.6 156.15 157.2 M157.5 159.5 Q158.45 160.1 159.05 160.95 159.5 161.75 159.25 162.4 159.1 163.05 158.3 163.05 157.5 163.05 156.4 162.4 155.5 161.8 155.0 160.95 154.4 160.1 154.65 159.5 154.9 158.85 155.65 158.85 156.5 158.85 157.5 159.5 M155.15 164.95 Q156.15 165.55 156.65 166.45 157.2 167.25 156.9 167.85 156.7 168.45 155.9 168.55 155.1 168.5 154.1 167.9 153.15 167.3 152.65 166.5 152.1 165.55 152.25 164.85 152.5 164.35 153.35 164.4 154.2 164.35 155.15 164.95 M158.9 164.0 Q159.65 163.95 160.6 164.6 L162.1 166.1 Q162.6 166.9 162.4 167.5 162.15 168.1 161.4 168.1 L159.6 167.55 Q158.65 166.95 158.2 166.1 157.6 165.25 157.85 164.6 158.05 164.0 158.9 164.0 M162.8 158.95 Q163.8 159.5 164.25 160.45 164.8 161.3 164.5 161.9 164.3 162.45 163.5 162.45 162.75 162.5 161.75 161.9 160.85 161.3 160.3 160.45 159.8 159.5 160.0 158.9 160.2 158.3 161.05 158.3 161.85 158.3 162.8 158.95 M163.1 164.1 Q163.3 163.45 164.1 163.5 164.9 163.5 165.85 164.1 L167.3 165.5 167.3 165.55 167.45 166.65 Q167.25 167.3 166.45 167.35 165.65 167.3 164.65 166.7 L163.45 165.5 163.4 165.45 163.25 165.25 163.25 165.2 163.2 165.2 Q162.95 164.6 163.1 164.1" fill="none" stroke="#666666" stroke-linecap="round" stroke-linejoin="round" stroke-width="1.0"/>
    <path d="M108.25 166.85 L96.55 149.4 105.3 149.1 116.85 166.35 108.25 166.85 M105.55 167.05 L96.8 167.6 84.95 149.7 93.7 149.5 105.55 167.05 M85.25 168.25 L73.15 150.1 81.9 149.8 93.9 167.75 85.25 168.25" fill="#818b8d" fill-rule="evenodd" stroke="none"/>
    <path d="M116.85 166.35 L120.4 171.65 111.8 172.3 108.25 166.85 116.85 166.35 M96.8 167.6 L105.55 167.05 109.2 172.55 100.6 173.15 96.8 167.6 M93.9 167.75 L97.7 173.4 89.15 174.05 85.25 168.25 93.9 167.75" fill="#df5f39" fill-rule="evenodd" stroke="none"/>
    <path d="M108.25 166.85 L96.55 149.4 105.3 149.1 116.85 166.35 120.4 171.65 111.8 172.3 108.25 166.85 116.85 166.35 M96.8 167.6 L105.55 167.05 93.7 149.5 84.95 149.7 96.8 167.6 100.6 173.15 109.2 172.55 105.55 167.05 M85.25 168.25 L73.15 150.1 81.9 149.8 93.9 167.75 97.7 173.4 89.15 174.05 85.25 168.25 93.9 167.75" fill="none" stroke="#666666" stroke-linecap="round" stroke-linejoin="round" stroke-width="1.0"/>
    <path d="M11.4 154.75 L10.15 152.5 64.65 150.75 81.05 175.85 78.7 176.1 63.75 153.1 11.4 154.75" fill="#515859" fill-rule="evenodd" stroke="none"/>
    <path d="M78.7 176.1 L25.3 180.6 11.4 154.75 63.75 153.1 78.7 176.1" fill="#929a9c" fill-rule="evenodd" stroke="none"/>
    <path d="M11.4 154.75 L10.15 152.5 64.65 150.75 81.05 175.85 78.7 176.1 25.3 180.6 11.4 154.75 63.75 153.1 78.7 176.1" fill="none" stroke="#666666" stroke-linecap="round" stroke-linejoin="round" stroke-width="1.0"/>
  </g>
</svg>
