<?xml version="1.0" encoding="UTF-8" standalone="no"?>
<svg xmlns:xlink="http://www.w3.org/1999/xlink" height="56.1px" width="65.9px" xmlns="http://www.w3.org/2000/svg">
  <g transform="matrix(1.0, 0.0, 0.0, 1.0, -7.35, 1.95)">
    <path d="M47.7 3.2 L60.4 5.4 57.2 25.7 71.05 24.1 68.1 41.55 65.05 41.15 Q65.15 37.95 63.7 35.75 62.1 33.45 59.95 33.45 57.55 33.45 55.95 35.85 54.45 37.85 54.25 40.6 50.1 40.45 45.8 40.6 L46.6 25.35 45.8 40.6 31.7 41.45 31.7 39.45 Q31.6 35.4 29.7 32.45 27.8 29.5 25.35 29.5 22.75 29.5 21.05 32.6 19.25 35.75 19.65 40.05 19.75 41.55 20.1 42.9 L15.0 43.75 9.9 20.6 31.1 24.1 29.9 0.0 47.7 3.2 47.55 6.2 47.7 3.2 M46.6 25.35 L52.7 25.85 56.4 7.25 47.55 6.2 34.75 4.75 34.3 24.35 46.6 25.35 M57.1 28.55 L54.25 28.85 57.1 28.55 M42.5 28.55 L39.95 28.2 42.5 28.55" fill="#c9e1f1" fill-rule="evenodd" stroke="none"/>
    <path d="M47.55 6.2 L56.4 7.25 52.7 25.85 46.6 25.35 47.55 6.2 46.6 25.35 34.3 24.35 34.75 4.75 47.55 6.2 M59.85 44.9 Q58.8 44.9 58.1 43.85 57.35 42.75 57.35 41.25 57.35 39.7 58.1 38.7 58.8 37.6 59.85 37.6 60.9 37.6 61.65 38.7 62.35 39.7 62.35 41.25 62.35 42.75 61.65 43.85 60.9 44.9 59.85 44.9 M23.6 36.95 Q24.4 35.6 25.55 35.6 26.65 35.6 27.45 36.95 28.25 38.25 28.25 40.05 28.25 41.9 27.45 43.25 26.65 44.55 25.55 44.55 24.4 44.55 23.6 43.25 22.8 41.9 22.8 40.05 22.8 38.25 23.6 36.95" fill="#ffffff" fill-rule="evenodd" stroke="none"/>
    <path d="M54.25 40.6 Q54.45 37.85 55.95 35.85 57.55 33.45 59.95 33.45 62.1 33.45 63.7 35.75 65.15 37.95 65.05 41.15 64.9 44.2 63.35 46.4 61.75 48.65 59.55 48.85 57.3 48.95 55.75 46.95 54.05 44.8 54.25 41.55 L54.25 40.6 M59.85 44.9 Q60.9 44.9 61.65 43.85 62.35 42.75 62.35 41.25 62.35 39.7 61.65 38.7 60.9 37.6 59.85 37.6 58.8 37.6 58.1 38.7 57.35 39.7 57.35 41.25 57.35 42.75 58.1 43.85 58.8 44.9 59.85 44.9 M20.1 42.9 Q19.75 41.55 19.65 40.05 19.25 35.75 21.05 32.6 22.75 29.5 25.35 29.5 27.8 29.5 29.7 32.45 31.6 35.4 31.7 39.45 L31.7 41.45 Q31.5 44.2 30.25 46.4 28.75 49.25 26.4 49.4 23.9 49.65 21.9 46.95 20.6 45.25 20.1 42.9 M23.6 36.95 Q22.8 38.25 22.8 40.05 22.8 41.9 23.6 43.25 24.4 44.55 25.55 44.55 26.65 44.55 27.45 43.25 28.25 41.9 28.25 40.05 28.25 38.25 27.45 36.95 26.65 35.6 25.55 35.6 24.4 35.6 23.6 36.95" fill="#999999" fill-rule="evenodd" stroke="none"/>
    <path d="M47.7 3.2 L47.55 6.2 46.6 25.35 45.8 40.6" fill="none" stroke="#cccccc" stroke-linecap="round" stroke-linejoin="round" stroke-width="2.0"/>
    <path d="M54.25 28.85 L57.1 28.55 M39.95 28.2 L42.5 28.55" fill="none" stroke="#666666" stroke-linecap="round" stroke-linejoin="round" stroke-width="2.0"/>
    <path d="M59.95 33.45 Q62.1 33.45 63.7 35.75 65.15 37.95 65.05 41.15 L68.1 41.55 71.05 24.1 57.2 25.7 Q52.25 26.05 46.6 25.9 L31.1 24.1 9.9 20.6 15.0 43.75 20.1 42.9 Q19.75 41.55 19.65 40.05 19.25 35.75 21.05 32.6 22.75 29.5 25.35 29.5 27.8 29.5 29.7 32.45 31.6 35.4 31.7 39.45 L31.7 41.45 45.8 40.6 Q50.1 40.45 54.25 40.6 54.45 37.85 55.95 35.85 57.55 33.45 59.95 33.45 M31.1 24.1 L29.9 0.0 60.4 5.4 57.2 25.7" fill="none" stroke="#48648c" stroke-linecap="round" stroke-linejoin="miter" stroke-miterlimit="3.0" stroke-width="2.0"/>
    <path d="M59.6 48.85 L59.55 48.85 Q57.3 48.95 55.75 46.95 54.05 44.8 54.25 41.55 L54.25 40.6 M65.05 41.15 Q64.9 44.2 63.35 46.4 62.4 47.7 61.3 48.35 M31.7 41.45 Q31.5 44.2 30.25 46.4 28.75 49.25 26.4 49.4 23.9 49.65 21.9 46.95 20.6 45.25 20.1 42.9" fill="none" stroke="#666666" stroke-linecap="round" stroke-linejoin="miter" stroke-miterlimit="3.0" stroke-width="2.0"/>
    <path d="M61.3 48.35 L72.25 53.15" fill="none" stroke="#666666" stroke-linecap="butt" stroke-linejoin="miter" stroke-miterlimit="3.0" stroke-width="2.0"/>
    <path d="M61.3 48.35 L59.6 48.85" fill="none" stroke="#666666" stroke-linecap="round" stroke-linejoin="miter" stroke-miterlimit="3.0" stroke-width="2.0"/>
    <path d="M59.6 48.85 L47.85 52.5 36.35 48.55 28.4 52.05 17.85 46.75 8.35 52.5" fill="none" stroke="#666666" stroke-linecap="round" stroke-linejoin="miter" stroke-miterlimit="3.0" stroke-width="2.0"/>
  </g>
</svg>
